<?xml version="1.0" standalone="no"?>
<!DOCTYPE svg PUBLIC "-//W3C//DTD SVG 20010904//EN"
 "http://www.w3.org/TR/2001/REC-SVG-20010904/DTD/svg10.dtd">
<svg version="1.0" xmlns="http://www.w3.org/2000/svg"
 width="48.000000pt" height="48.000000pt" viewBox="0 0 48.000000 48.000000"
 preserveAspectRatio="xMidYMid meet">

<g transform="translate(0.000000,48.000000) scale(0.100000,-0.100000)"
fill="#000000" stroke="none">
<path d="M226 394 c-18 -10 -41 -14 -62 -11 -20 4 -34 2 -34 -5 0 -11 84 -7
113 6 14 7 17 3 17 -23 0 -31 27 -97 36 -88 2 2 -3 20 -11 40 -8 20 -15 50
-15 67 0 34 -4 35 -44 14z"/>
<path d="M330 376 c0 -13 11 -40 25 -60 l24 -36 -37 -19 c-36 -19 -72 -61 -52
-61 5 0 14 9 19 19 6 10 30 27 55 37 l44 18 -29 34 c-18 20 -29 44 -29 62 0
17 -4 30 -10 30 -5 0 -10 -11 -10 -24z"/>
<path d="M98 284 c2 -18 -3 -47 -12 -65 -21 -42 -20 -49 4 -20 13 15 20 38 20
67 l0 43 30 -11 c28 -9 108 -3 97 8 -2 3 -36 6 -74 8 l-69 3 4 -33z"/>
<path d="M170 232 c0 -15 -11 -44 -25 -64 l-24 -36 35 -7 c20 -3 47 -18 61
-31 29 -29 39 -27 17 4 -8 12 -32 27 -54 33 l-39 12 18 26 c23 32 37 91 22 91
-6 0 -11 -12 -11 -28z"/>
<path d="M210 189 c0 -5 6 -9 14 -9 7 0 30 -18 51 -41 20 -22 38 -39 39 -37 1
1 13 18 25 35 12 18 33 36 47 39 22 6 35 24 17 24 -13 0 -73 -39 -73 -47 0 -5
-4 -14 -9 -22 -7 -11 -16 -6 -40 21 -30 34 -71 56 -71 37z"/>
</g>
</svg>
