<?xml version="1.0" standalone="no"?>
<!DOCTYPE svg PUBLIC "-//W3C//DTD SVG 20010904//EN"
 "http://www.w3.org/TR/2001/REC-SVG-20010904/DTD/svg10.dtd">
<svg version="1.0" xmlns="http://www.w3.org/2000/svg"
 width="141.000000pt" height="48.000000pt" viewBox="0 0 141.000000 48.000000"
 preserveAspectRatio="xMidYMid meet">

<g transform="translate(0.000000,48.000000) scale(0.100000,-0.100000)"
fill="#000000" stroke="none">
<path d="M226 394 c-18 -10 -41 -14 -62 -11 -20 4 -34 2 -34 -5 0 -11 84 -7
113 6 14 7 17 3 17 -23 0 -31 27 -97 36 -88 2 2 -3 20 -11 40 -8 20 -15 50
-15 67 0 34 -4 35 -44 14z"/>
<path d="M330 376 c0 -13 11 -40 25 -60 l24 -36 -37 -19 c-36 -19 -72 -61 -52
-61 5 0 14 9 19 19 6 10 30 27 55 37 l44 18 -29 34 c-18 20 -29 44 -29 62 0
17 -4 30 -10 30 -5 0 -10 -11 -10 -24z"/>
<path d="M98 284 c2 -18 -3 -47 -12 -65 -21 -42 -20 -49 4 -20 13 15 20 38 20
67 l0 43 30 -11 c28 -9 108 -3 97 8 -2 3 -36 6 -74 8 l-69 3 4 -33z"/>
<path d="M796 299 c-28 -22 -36 -73 -16 -109 11 -21 51 -33 77 -23 14 6 10 9
-17 13 -48 7 -72 48 -50 88 11 19 25 28 48 30 18 2 30 8 27 13 -10 15 -41 10
-69 -12z"/>
<path d="M976 299 c-28 -22 -36 -73 -16 -109 11 -21 51 -33 77 -23 14 6 10 9
-17 13 -73 11 -75 111 -2 118 18 2 30 8 27 13 -10 15 -41 10 -69 -12z"/>
<path d="M480 240 c0 -45 4 -70 11 -70 8 0 10 17 7 50 -3 28 -2 50 1 50 3 0
15 -17 27 -37 l21 -36 26 43 26 44 4 -60 c3 -58 3 -58 5 15 2 62 0 72 -12 62
-8 -6 -19 -25 -26 -41 -7 -17 -15 -30 -19 -30 -3 0 -17 18 -31 40 -14 22 -28
40 -32 40 -5 0 -8 -31 -8 -70z"/>
<path d="M640 303 c0 -4 12 -39 26 -77 l27 -69 23 57 c32 79 37 96 27 96 -5 0
-17 -25 -27 -55 -9 -30 -19 -55 -21 -55 -2 0 -11 22 -20 50 -15 44 -35 75 -35
53z"/>
<path d="M1082 258 c-28 -28 -4 -98 33 -98 22 0 45 30 45 59 0 32 -16 51 -45
51 -12 0 -26 -5 -33 -12z m58 -18 c15 -27 3 -60 -20 -60 -27 0 -44 34 -30 60
14 26 36 26 50 0z"/>
<path d="M1190 218 c0 -26 5 -48 10 -48 6 0 10 18 10 40 0 27 6 42 18 49 14 9
13 10 -10 9 -26 -2 -28 -5 -28 -50z"/>
<path d="M1272 258 c-17 -17 -15 -64 4 -82 18 -18 33 -20 54 -6 11 7 8 10 -16
10 -18 0 -34 6 -37 14 -8 20 2 26 40 26 36 0 38 2 23 31 -12 21 -50 25 -68 7z
m56 -15 c2 -9 -7 -13 -28 -13 -28 0 -31 2 -20 15 15 18 41 16 48 -2z"/>
<path d="M170 232 c0 -15 -11 -44 -25 -64 l-24 -36 35 -7 c20 -3 47 -18 61
-31 29 -29 39 -27 17 4 -8 12 -32 27 -54 33 l-39 12 18 26 c23 32 37 91 22 91
-6 0 -11 -12 -11 -28z"/>
<path d="M210 189 c0 -5 6 -9 14 -9 7 0 30 -18 51 -41 20 -22 38 -39 39 -37 1
1 13 18 25 35 12 18 33 36 47 39 22 6 35 24 17 24 -13 0 -73 -39 -73 -47 0 -5
-4 -14 -9 -22 -7 -11 -16 -6 -40 21 -30 34 -71 56 -71 37z"/>
</g>
</svg>
